<?xml version="1.0" encoding="UTF-8" standalone="no"?>
<!-- Created with Inkscape (http://www.inkscape.org/) -->

<svg
   xmlns:dc="http://purl.org/dc/elements/1.1/"
   xmlns:cc="http://creativecommons.org/ns#"
   xmlns:rdf="http://www.w3.org/1999/02/22-rdf-syntax-ns#"
   xmlns:svg="http://www.w3.org/2000/svg"
   xmlns="http://www.w3.org/2000/svg"
   xmlns:sodipodi="http://sodipodi.sourceforge.net/DTD/sodipodi-0.dtd"
   xmlns:inkscape="http://www.inkscape.org/namespaces/inkscape"
   width="55.437977mm"
   height="91.390419mm"
   viewBox="0 0 55.437977 91.390417"
   version="1.1"
   id="svg8"
   inkscape:version="0.92.4 (5da689c313, 2019-01-14)"
   sodipodi:docname="desenhando.svg">
  <defs
     id="defs2" />
  <sodipodi:namedview
     id="base"
     pagecolor="#ffffff"
     bordercolor="#666666"
     borderopacity="1.0"
     inkscape:pageopacity="0.0"
     inkscape:pageshadow="2"
     inkscape:zoom="0.49497475"
     inkscape:cx="217.92137"
     inkscape:cy="177.35065"
     inkscape:document-units="mm"
     inkscape:current-layer="layer1"
     showgrid="false"
     fit-margin-top="0"
     fit-margin-left="0"
     fit-margin-right="0"
     fit-margin-bottom="0"
     inkscape:window-width="1920"
     inkscape:window-height="1023"
     inkscape:window-x="0"
     inkscape:window-y="28"
     inkscape:window-maximized="1" />
  <metadata
     id="metadata5">
    <rdf:RDF>
      <cc:Work
         rdf:about="">
        <dc:format>image/svg+xml</dc:format>
        <dc:type
           rdf:resource="http://purl.org/dc/dcmitype/StillImage" />
        <dc:title></dc:title>
      </cc:Work>
    </rdf:RDF>
  </metadata>
  <g
     inkscape:label="Camada 1"
     inkscape:groupmode="layer"
     id="layer1"
     transform="translate(-32.755959,-50.292599)">
    <text
       xml:space="preserve"
       style="font-style:normal;font-weight:normal;font-size:9.13350773px;line-height:1.25;font-family:sans-serif;letter-spacing:0px;word-spacing:0px;fill:#000000;fill-opacity:1;stroke:none;stroke-width:0.22833769"
       x="35.432487"
       y="53.560734"
       id="text817"
       inkscape:export-xdpi="96"
       inkscape:export-ydpi="96"
       transform="scale(0.9326786,1.0721807)"><tspan
         sodipodi:role="line"
         id="tspan815"
         x="35.432487"
         y="53.560734"
         style="font-style:normal;font-variant:normal;font-weight:normal;font-stretch:normal;font-family:'Indie Flower';-inkscape-font-specification:'Indie Flower';letter-spacing:2.21924138px;word-spacing:0.22128956px;stroke-width:0.22833769"
         dx="0">Fuldi</tspan></text>
    <g
       id="g970"
       transform="translate(-238.40442,-9.8500234)">
      <path
         inkscape:export-ydpi="96"
         inkscape:export-xdpi="96"
         sodipodi:nodetypes="cccsccscccccccc"
         style="fill:none;fill-opacity:1;stroke:#666666;stroke-width:0.565;stroke-miterlimit:4;stroke-dasharray:none;stroke-opacity:1"
         d="m 315.37298,118.44205 c 1.38009,0.34237 1.72114,0.83156 1.71347,2.45778 -0.0106,2.24938 -0.38883,3.29914 -1.66344,4.61695 -1.36923,1.41562 -1.76983,2.1088 -1.76983,3.06246 0,0.87464 -0.66108,1.1372 -1.33277,0.52934 -0.91572,-0.82872 -0.63222,-2.6388 0.47951,-3.06147 1.17262,-0.44583 0.40985,-0.56488 -1.46851,-0.2292 -1.51191,0.27019 -1.95596,0.26346 -2.57717,-0.0391 -0.97213,-0.47344 -1.08032,-0.86854 -0.41891,-1.52995 0.29504,-0.29504 0.42214,-0.60645 0.28271,-0.69264 -0.48677,-0.30084 -0.22191,-3.10292 0.37406,-3.95725 0.30704,-0.44014 0.57955,-0.84101 0.60561,-0.89081 0.026,-0.0498 0.50269,-0.25659 1.05922,-0.45952 1.04074,-0.3795 2.67726,-0.3124 4.71605,0.19338 z"
         id="path842-7"
         inkscape:connector-curvature="0" />
      <g
         inkscape:export-ydpi="96"
         inkscape:export-xdpi="96"
         style="fill:#666666"
         id="g964">
        <path
           inkscape:connector-curvature="0"
           id="path840"
           d="m 285.82927,151.29431 c -1.88307,-0.11291 -3.84761,-0.29173 -4.36562,-0.39738 l -0.94185,-0.19209 0.89222,-0.19798 c 0.49072,-0.10889 2.21712,-0.28279 3.83645,-0.38646 2.38307,-0.15255 3.03446,-0.28373 3.41757,-0.68826 0.48647,-0.51366 1.30905,-0.64188 3.33203,-0.51936 1.15572,0.07 1.15885,0.0677 0.95607,-0.68271 -0.1119,-0.41411 -0.39556,-1.8194 -0.63036,-3.12287 l -0.4269,-2.36995 -1.5875,-0.32661 c -0.87312,-0.17963 -2.06375,-0.49423 -2.64583,-0.69911 -1.03778,-0.36527 -1.0651,-0.40796 -1.40659,-2.19823 -0.23106,-1.21137 -0.31304,-3.22799 -0.24361,-5.9928 0.0949,-3.77989 0.0597,-4.20777 -0.37935,-4.60507 -0.76437,-0.69174 -0.62076,-2.0339 0.33398,-3.12128 0.62064,-0.70687 1.06262,-1.77823 1.83211,-4.44098 0.55777,-1.93015 1.20996,-3.97174 1.4493,-4.53688 0.41577,-0.98173 0.41371,-1.01825 -0.0462,-0.81932 -3.51712,1.52136 -5.29793,1.51964 -6.61707,-0.006 -0.46467,-0.53755 -1.08993,-1.70305 -1.38946,-2.59 -0.66592,-1.97191 -0.75006,-4.88725 -0.14772,-5.11839 0.53913,-0.20688 0.57235,-3.00609 0.0357,-3.00609 -0.19866,0 -0.65539,-0.23141 -1.01496,-0.51425 -0.56781,-0.44664 -1.03456,-0.50751 -3.55015,-0.46302 -3.26021,0.0577 -4.33412,-0.31975 -4.33412,-1.52317 0,-0.6384 0.92129,-1.56976 1.84177,-1.86191 0.35742,-0.11344 0.50436,-0.50214 0.59275,-1.568069 0.21427,-2.583848 1.53469,-4.516816 5.26591,-7.70878 0.34867,-0.29828 0.75442,-0.756193 0.90167,-1.017586 0.31314,-0.555902 2.77499,-0.962993 2.77499,-0.458872 0,0.178287 0.48409,0.298993 1.19912,0.298993 1.55987,0 2.92015,0.583951 4.19032,1.798856 1.05478,1.008894 2.27195,3.220202 2.28662,4.154269 0.005,0.333504 0.32414,0.675913 0.86248,0.926041 1.27589,0.592823 1.27858,1.526061 0.008,2.676778 -0.55309,0.50079 -1.15471,1.24066 -1.33694,1.64416 -0.18222,0.4035 -0.72042,0.89622 -1.19599,1.09492 -0.47558,0.19871 -1.10011,0.62143 -1.38785,0.93938 -0.28774,0.31796 -0.85087,0.74756 -1.2514,0.95468 -0.86845,0.4491 -1.00462,1.42132 -0.19906,1.42132 0.3713,0 0.53024,0.1776 0.53278,0.59532 0.007,1.14651 0.31142,1.78593 0.85039,1.78593 0.29024,0 1.49675,-0.58464 2.68112,-1.2992 1.80661,-1.08997 3.76898,-1.98984 6.32439,-2.90013 0.42324,-0.15077 0.39855,-0.26506 -0.26458,-1.22462 -0.64835,-0.93816 -0.73536,-1.3137 -0.76633,-3.307288 -0.0192,-1.236927 -0.16804,-2.584131 -0.33073,-2.993787 -0.35782,-0.901016 -0.36523,-1.249185 -0.0376,-1.767424 0.21441,-0.339162 0.30509,-0.320352 0.63577,0.131876 0.57335,0.784103 0.8696,0.236318 0.3489,-0.645149 -0.63035,-1.067093 -0.56501,-1.529486 0.34464,-2.439137 0.43656,-0.436563 0.79375,-1.061494 0.79375,-1.388736 0,-0.674175 0.92722,-1.641886 1.71979,-1.794883 0.32911,-0.06353 0.49934,-0.27546 0.45028,-0.560572 -0.0485,-0.281708 0.22671,-0.633812 0.71388,-0.913414 0.43603,-0.250246 0.90356,-0.694484 1.03896,-0.987196 0.13539,-0.292711 0.90573,-1.448602 1.71187,-2.568646 l 1.4657,-2.036443 -1.29347,-0.429622 c -1.48809,-0.494263 -2.63477,-1.685252 -2.6262,-2.727688 0.0197,-2.400498 3.13246,-5.428412 6.14183,-5.974452 1.47853,-0.268274 2.96374,0.255682 4.43916,1.566059 l 1.31877,1.171258 3.37378,-0.058 c 2.96209,-0.05092 3.4834,0.0066 4.27216,0.471166 1.93421,1.139291 2.48538,2.887298 1.38128,4.380674 l -0.58665,0.793488 0.54255,0.689746 c 0.5996,0.762264 0.75181,2.908011 0.27013,3.808039 -0.64792,1.210652 -2.87999,1.656447 -4.63086,0.924887 l -0.91755,-0.383374 v 1.32503 c 0,0.728767 0.0893,1.272453 0.19844,1.20819 0.41379,-0.24364 1.42187,0.35541 1.36472,0.810982 -0.0765,0.610107 0.4687,1.920463 0.79911,1.920463 0.32727,0 0.80932,1.705769 0.81126,2.870729 10e-4,0.656397 -0.23191,1.119743 -0.89811,1.785937 -0.49477,0.494771 -1.09008,0.899584 -1.32292,0.899584 -0.23283,0 -0.42333,0.119062 -0.42333,0.264583 0,0.389528 0.29334,0.325729 1.28661,-0.27983 0.48936,-0.298339 0.95197,-0.480204 1.02803,-0.404143 0.22236,0.22236 -0.66315,1.414574 -1.52265,2.05003 -0.43559,0.322047 -0.79721,0.771509 -0.8036,0.998805 -0.0235,0.836638 -0.72934,2.387118 -1.56974,3.448208 -0.47503,0.59977 -0.81572,1.13847 -0.75709,1.1971 0.0586,0.0586 1.05525,0.58289 2.21471,1.16502 7.62746,3.8295 11.78255,12.41093 8.32223,17.18776 -0.89409,1.23425 -2.51732,2.25327 -4.29589,2.69684 -1.03588,0.25835 -1.25677,0.41848 -1.25677,0.91109 0,0.32871 0.17859,0.74587 0.39687,0.92703 0.47494,0.39416 0.52566,1.88204 0.0794,2.32833 -0.17463,0.17463 -0.24817,0.3175 -0.16342,0.3175 0.0847,0 0.63033,-0.47625 1.21241,-1.05833 1.1436,-1.14361 2.39421,-1.40737 3.35205,-0.70697 1.3505,0.9875 -0.4546,3.61738 -2.48291,3.61738 -0.64983,0 -0.6782,0.2174 -0.13042,0.99946 0.4611,0.65832 1.18274,0.75206 1.98103,0.25731 0.43986,-0.2726 0.57802,-0.26097 0.78611,0.0662 0.38576,0.60644 0.32382,0.74745 -0.52005,1.18383 -1.14265,0.59089 -1.81089,0.49871 -2.67917,-0.36957 l -0.77325,-0.77325 0.16894,1.10397 c 0.34779,2.27274 1.23226,3.13828 2.5796,2.52439 0.79979,-0.36441 0.91753,-0.29825 1.01577,0.57078 0.0559,0.49447 -0.14423,0.7534 -0.90134,1.1662 -0.93688,0.51081 -1.009,0.51354 -1.93286,0.073 -0.90055,-0.42944 -1.08224,-0.69502 -1.84803,-2.70121 -0.15426,-0.40414 -0.28457,-0.13855 -0.55155,1.12418 -0.61396,2.9039 -2.42212,5.40716 -4.34701,6.0181 -0.53755,0.17061 -0.71557,0.87649 -0.95989,3.8061 l -0.17326,2.07757 1.35493,-0.1302 c 1.57269,-0.15112 2.94856,0.31038 2.94856,0.98902 0,0.38988 0.36904,0.48585 2.4474,0.63648 6.44722,0.46727 6.24808,0.79114 -0.74252,1.2076 -5.25673,0.31316 -28.84967,0.30941 -34.10053,-0.005 z m 22.30926,-2.29581 c -0.15604,-0.40018 -0.34947,-1.96136 -0.42984,-3.46929 l -0.14613,-2.74168 -1.48184,0.15272 c -0.81501,0.084 -2.99988,0.23255 -4.85527,0.33012 -3.85291,0.20261 -3.52279,-0.12987 -3.12608,3.14844 0.12326,1.01865 0.35322,2.17951 0.511,2.57969 l 0.28687,0.7276 h 4.7625 4.7625 z m -10.88256,0.30442 c 0.76192,-0.15239 0.78422,-0.1965 0.56855,-1.12448 -0.12346,-0.53123 -0.22731,-1.82051 -0.23078,-2.86507 l -0.006,-1.89919 -1.52135,-0.16074 c -0.83674,-0.0884 -2.01008,-0.22074 -2.60742,-0.29408 l -1.08606,-0.13333 0.23707,1.53181 c 0.27657,1.78702 0.65328,3.35185 1.05349,4.37608 0.2547,0.65183 0.41528,0.7276 1.54205,0.7276 0.69176,0 1.61461,-0.0714 2.05077,-0.1586 z m 15.00672,-0.39587 c 1.29176,-0.32527 1.45402,-0.63075 1.46218,-2.75282 0.008,-2.02885 0.43362,-3.20478 1.40049,-3.86763 2.95979,-2.02909 3.77855,-3.81084 4.27664,-9.30659 l 0.16287,-1.79714 -0.76543,0.39582 c -0.65136,0.33683 -0.81266,0.6441 -1.08233,2.06172 -0.61897,3.25383 -1.64611,7.30403 -1.95591,7.71251 -0.21731,0.28653 -1.44924,0.579 -3.98934,0.9471 -2.02122,0.29291 -3.7376,0.59522 -3.81418,0.67179 -0.16488,0.1649 0.40381,5.627 0.62275,5.98125 0.20588,0.33312 2.27949,0.30721 3.68226,-0.046 z m -9.11902,-17.17843 c 2.54662,-0.14449 5.58271,-0.38251 6.74688,-0.52893 3.11564,-0.39185 9.20717,-1.61465 9.60559,-1.9282 0.72953,-0.57414 0.84879,-1.16472 0.36518,-1.80826 -0.25775,-0.34297 -0.45795,-0.95101 -0.4449,-1.35119 0.0232,-0.71279 -0.007,-0.7276 -1.50993,-0.7276 -0.62987,-0.0626 -1.37873,0.0883 -1.68866,-0.44943 0.3244,-2.2952 1.66369,-5.02535 -0.31188,-6.33485 -0.39935,-0.2647 1.0814,-0.22737 1.92487,-0.21381 l 1.18786,-0.17814 v -1.30844 c 0,-0.71965 -0.18129,-2.51544 -0.40286,-3.99065 -0.22158,-1.47522 -0.35251,-2.73257 -0.29096,-2.79412 0.34288,-0.34288 1.22298,4.5831 1.22298,6.84512 v 1.06245 l 1.12448,-0.15204 1.12448,-0.15203 -0.79375,0.38142 c -0.43656,0.20979 -0.93963,0.3868 -1.11793,0.39337 -0.23827,0.009 -0.2558,0.19178 -0.0661,0.69061 0.14192,0.37328 0.24314,1.05789 0.22492,1.52136 -0.0306,0.77813 -0.0465,0.76161 -0.20771,-0.21567 -0.2533,-1.5354 -0.44513,-1.71979 -1.78919,-1.71979 H 316.842 l 0.1574,0.8599 c 0.4185,2.2863 0.47989,3.64864 0.20052,4.45003 -0.16514,0.47372 -0.25815,0.90339 -0.2067,0.95485 0.0515,0.0514 0.55801,-0.002 1.12568,-0.11975 0.84331,-0.17429 1.0822,-0.3663 1.30592,-1.04967 0.15059,-0.46 0.36524,-0.92781 0.477,-1.03957 0.11176,-0.11176 0.14733,-0.0282 0.079,0.18561 -0.0683,0.21385 -0.19746,0.72234 -0.28702,1.12999 -0.16076,0.73173 -0.15007,0.73886 0.8378,0.55924 1.452,-0.26402 3.34018,-1.28183 4.1389,-2.23105 1.11347,-1.32328 1.62879,-3.50057 1.29428,-5.46848 -0.73184,-4.30539 -4.31683,-8.86754 -8.78459,-11.17899 -1.33352,-0.68991 -2.27465,-1.03868 -2.33273,-0.86446 -0.40719,1.2216 -3.16196,2.99099 -5.2756,3.38852 l -0.84789,0.15947 0.79124,0.66578 c 1.54747,1.30211 2.05434,3.23318 0.99717,3.79897 -0.80036,0.42834 -2.73709,0.10741 -4.07169,-0.67472 -0.99914,-0.58554 -1.97408,-1.94448 -1.97408,-2.75162 0,-0.42872 -0.80527,-0.0433 -1.97282,0.94418 -1.03332,0.87399 -3.08367,1.66719 -4.3095,1.66719 -0.51651,0 -0.76507,0.29796 -1.37947,1.65365 -0.89589,1.97678 -1.73988,4.4899 -2.26241,6.73671 -0.5904,2.53861 -1.01392,7.48256 -0.80673,9.41726 l 0.18678,1.74415 1.23718,0.0983 c 2.42084,0.19234 3.40939,0.18285 7.98405,-0.0767 z m -0.35277,-2.28724 c -0.32078,-0.32078 -0.18332,-1.07601 0.26299,-1.44486 0.40166,-0.33195 0.4079,-0.31258 0.0728,0.22558 -0.45556,0.73156 -0.0378,1.26813 0.78413,1.00725 0.67313,-0.21364 0.73704,-1.10685 0.0928,-1.29678 -0.36334,-0.10711 -0.34975,-0.12488 0.0631,-0.0825 0.62237,0.0639 0.84071,0.8397 0.38936,1.38355 -0.32741,0.3945 -1.35072,0.52219 -1.66514,0.20777 z m -6.88854,-0.75457 c -0.22682,-0.59106 0.28218,-1.45696 0.83448,-1.4196 0.41156,0.0278 0.41279,0.0415 0.0132,0.14736 -0.90703,0.24022 -0.88477,1.40945 0.0268,1.40945 0.77354,0 1.21255,-0.69728 0.79128,-1.25677 -0.32471,-0.43125 -0.31363,-0.43091 0.16155,0.005 0.39909,0.36608 0.44774,0.56774 0.22341,0.92605 -0.39007,0.62304 -1.83313,0.75571 -2.05077,0.18855 z m 6.81917,-4.19885 c -0.19436,-0.50649 0.0298,-0.87185 0.76761,-1.25142 0.5772,-0.29692 0.57708,-0.2953 -0.0206,0.27893 -0.33065,0.31768 -0.53198,0.68956 -0.44741,0.82641 0.28919,0.46791 1.19691,0.2512 1.45135,-0.34651 0.24973,-0.58663 0.2525,-0.58566 0.18991,0.0661 -0.0515,0.53697 -0.22569,0.67709 -0.92522,0.7445 -0.58337,0.0562 -0.91144,-0.0465 -1.01564,-0.31806 z m -6.13952,-0.21477 c -0.50039,-0.50039 -0.37206,-1.22276 0.27781,-1.56378 0.57767,-0.30313 0.58159,-0.29691 0.13229,0.20996 -0.82204,0.92739 -0.41241,1.68147 0.61478,1.13173 0.3694,-0.19769 0.51455,-0.47161 0.42711,-0.80598 -0.0728,-0.27859 -0.0245,-0.50652 0.10736,-0.50652 0.46454,0 0.23978,1.30432 -0.27196,1.5782 -0.65995,0.35319 -0.89868,0.3451 -1.28739,-0.0436 z m 27.72833,-2.29711 c 0,-0.14552 0.11906,-0.33816 0.26459,-0.4281 0.14552,-0.0899 0.26458,-0.0445 0.26458,0.10106 0,0.14552 -0.11906,0.33817 -0.26458,0.42811 -0.14553,0.0899 -0.26459,0.0444 -0.26459,-0.10107 z m -21.41721,-1.99869 c -0.41077,-0.49494 0.0803,-1.48081 0.72287,-1.45123 0.36664,0.0169 0.37755,0.0499 0.0568,0.17196 -0.8913,0.33929 -0.87692,1.39465 0.019,1.39465 0.55571,0 1.03421,-0.73958 0.83696,-1.2936 -0.08,-0.22461 -0.0146,-0.29572 0.16805,-0.18282 0.44018,0.27204 0.3644,0.80597 -0.18495,1.30312 -0.59518,0.53863 -1.20181,0.56034 -1.61878,0.0579 z m 14.69443,0.15436 c -0.0767,-0.12408 0.0273,-0.45151 0.23115,-0.72761 0.2859,-0.38727 0.44316,-0.43048 0.68812,-0.18905 0.17464,0.17212 0.24592,0.49954 0.15841,0.7276 -0.17016,0.44343 -0.84708,0.56218 -1.07768,0.18906 z m 0.90195,-0.30356 c 0,-0.14552 -0.11906,-0.26459 -0.26459,-0.26459 -0.14552,0 -0.26458,0.11907 -0.26458,0.26459 0,0.14552 0.11906,0.26458 0.26458,0.26458 0.14553,0 0.26459,-0.11906 0.26459,-0.26458 z m -21.15708,-0.25306 c -0.61727,-0.39042 -0.0378,-1.71293 0.78948,-1.80182 l 0.65614,-0.0705 -0.7276,0.40969 c -0.40019,0.22532 -0.72761,0.59238 -0.72761,0.81568 0,0.28682 0.21359,0.38142 0.72761,0.32228 0.50293,-0.0579 0.71625,-0.22669 0.69085,-0.54674 -0.0202,-0.25466 0.0691,-0.46302 0.19844,-0.46302 0.40607,0 0.25624,0.69268 -0.24867,1.14961 -0.54999,0.49774 -0.80835,0.53289 -1.35864,0.18483 z m 6.34151,-4.37583 c -0.26454,-0.31876 -0.24397,-0.52422 0.10599,-1.05833 0.23885,-0.36453 0.63989,-0.65472 0.8912,-0.64488 0.35209,0.0138 0.3175,0.0851 -0.15077,0.31054 -0.62964,0.3032 -0.72895,1.25836 -0.15062,1.44858 0.4362,0.14348 1.21059,-0.72185 1.04114,-1.16342 -0.08,-0.20856 -0.0278,-0.3044 0.11707,-0.21486 0.40529,0.25048 0.31017,0.79817 -0.2223,1.28004 -0.60092,0.54383 -1.20255,0.55944 -1.63171,0.0423 z m -5.15635,-0.23017 c -0.5889,-0.43061 -0.33269,-1.39299 0.43579,-1.6369 0.65601,-0.2082 1.4219,0.45256 1.19871,1.03417 -0.26002,0.67761 -1.10565,0.98943 -1.6345,0.60273 z m 1.31879,-0.80744 c 0,-0.67513 -0.49804,-0.80912 -1.03005,-0.27711 -0.53339,0.53339 -0.29952,0.9737 0.45971,0.86551 0.35742,-0.0509 0.57034,-0.2706 0.57034,-0.5884 z M 293.2713,128.361 c 0.0281,-5.2703 1.17708,-10.74571 3.02429,-14.41225 0.41947,-0.83259 0.76267,-1.56727 0.76267,-1.63262 0,-0.0653 -0.35719,-0.19727 -0.79375,-0.29315 -0.99095,-0.21765 -0.99559,-0.56801 -0.0253,-1.90746 0.82639,-1.1408 2.08869,-2.03997 3.28196,-2.33783 l 0.74312,-0.18549 -0.54468,-0.57979 c -0.29958,-0.31888 -0.54469,-0.82155 -0.54469,-1.11704 0,-0.29548 -0.21058,-0.72783 -0.46797,-0.96075 -0.38526,-0.34866 -0.67753,-0.37657 -1.65364,-0.15789 -1.24775,0.27953 -4.84598,1.94269 -7.55415,3.49167 -1.9874,1.13672 -2.49507,0.9828 -2.49507,-0.75649 0,-0.64761 -0.0656,-1.17747 -0.14578,-1.17747 -0.0802,0 -1.26474,0.47625 -2.63234,1.05833 -1.36761,0.58208 -2.67123,1.05833 -2.89693,1.05833 -0.30462,0 -0.41037,0.28199 -0.41037,1.0943 v 1.0943 l 1.14102,-0.1564 c 0.62756,-0.086 1.72889,-0.40049 2.4474,-0.69883 0.91669,-0.38063 1.14853,-0.41911 0.77721,-0.129 -0.29104,0.22739 -1.37653,0.66394 -2.4122,0.9701 l -1.88303,0.55667 0.32132,1.21412 c 0.44067,1.66505 1.33473,3.34507 2.04486,3.84247 0.95767,0.67077 3.01324,0.52688 4.84367,-0.33907 1.58585,-0.75025 1.59542,-0.76168 2.60185,-3.10865 0.90114,-2.10143 2.63592,-5.13376 2.93701,-5.13376 0.0625,0 -0.41217,0.98853 -1.0549,2.19674 -1.41825,2.66604 -2.88867,6.5247 -4.35779,11.43571 -0.74997,2.50702 -1.34535,3.98642 -1.87185,4.65118 -0.94429,1.19226 -0.97739,2.06926 -0.11671,3.09211 0.90951,1.08091 3.93006,2.27699 6.76873,2.68031 0.0814,0.0116 0.15614,-1.49701 0.16604,-3.3524 z m -8.11929,-15.12424 c 0,-0.74827 1.23303,-3.46274 1.57294,-3.46274 0.15353,0 0.27914,0.20135 0.27914,0.44744 0,0.39375 0.0441,0.38714 0.36748,-0.0551 0.2882,-0.39412 0.27393,-0.13992 -0.0661,1.17817 -0.40836,1.5828 -0.44134,1.62869 -0.56592,0.78757 l -0.13229,-0.89316 -0.50897,1.13241 c -0.58743,1.30698 -0.94624,1.63515 -0.94624,0.86543 z m 0.15638,-5.01126 c -0.0767,-0.12408 0.0415,-0.45151 0.26267,-0.72761 0.38417,-0.47961 0.39435,-0.47405 0.22834,0.12462 -0.128,0.46162 -0.0794,0.59373 0.18474,0.50172 0.19717,-0.0687 0.31878,-0.35067 0.27023,-0.62662 -0.0685,-0.38971 -0.0164,-0.43185 0.23357,-0.18877 0.17701,0.17212 0.25023,0.49954 0.16271,0.7276 -0.16833,0.43866 -1.10635,0.57078 -1.34226,0.18906 z m 37.61289,21.59208 c 0.41944,-0.33558 0.43073,-0.99356 0.017,-0.99356 -0.37384,0 -1.5384,1.04985 -1.5384,1.38687 0,0.26923 1.02417,0.004 1.52135,-0.39331 z m -38.62917,-22.84296 c 0.76399,-0.33608 1.38906,-0.72694 1.38906,-0.86857 0,-0.14163 0.0798,-0.46536 0.17726,-0.71942 0.12085,-0.31492 0.0788,-0.40103 -0.13229,-0.2706 -0.17025,0.10522 -0.30955,0.0781 -0.30955,-0.0602 0,-0.13834 0.27717,-0.32109 0.61593,-0.40611 0.33877,-0.085 0.96385,-0.47924 1.38907,-0.87603 0.42522,-0.39679 1.24122,-0.97049 1.81332,-1.27489 1.56322,-0.83175 1.4687,-1.23937 -0.14519,-0.62614 -1.9076,0.72483 -7.24361,2.08053 -8.18893,2.08053 -1.02728,0 -0.98599,0.38644 0.084,0.78635 0.47294,0.17676 1.09802,0.42128 1.38906,0.54336 0.50386,0.21137 0.5007,0.22284 -0.0661,0.23989 -0.52786,0.0159 -0.59532,0.15483 -0.59532,1.22635 0,1.37626 -0.0302,1.37362 2.57969,0.22548 z m 24.80469,-0.73579 c 3.68497,-0.98581 6.54986,-3.3747 7.38789,-6.16039 0.16822,-0.55915 0.15412,-0.56169 -0.96275,-0.173451 -1.82593,0.634711 -5.76661,0.371241 -7.68517,-0.513832 -0.83854,-0.386836 -1.59542,-0.887846 -1.68195,-1.113357 -0.1762,-0.459166 -1.56016,-0.566715 -1.82286,-0.141657 -0.0912,0.1476 -0.66379,0.525642 -1.27238,0.840092 -1.59881,0.826085 -4.3322,0.834136 -5.43906,0.01603 -0.44298,-0.327433 -0.85931,-0.595323 -0.92517,-0.595323 -0.0659,0 -0.19264,0.446484 -0.28173,0.992187 -0.44185,2.706371 1.85107,5.368271 5.80056,6.733981 1.61401,0.55811 5.01522,0.6153 6.88262,0.11572 z m -33.53594,-2.20344 c -0.25466,-0.0665 -0.67138,-0.0665 -0.92604,0 -0.25466,0.0666 -0.0463,0.121 0.46302,0.121 0.50932,0 0.71768,-0.0545 0.46302,-0.121 z m 4.69636,-0.47617 c 0.66795,0.10775 0.70988,0.0855 0.26458,-0.14023 -0.41632,-0.21106 -0.30347,-0.24081 0.52917,-0.13952 1.41516,0.17215 8.06979,-1.48953 8.06979,-2.01505 0,-0.11599 0.44648,-0.43877 0.99218,-0.71728 0.54571,-0.27852 1.21646,-0.754372 1.49057,-1.057468 0.27411,-0.303093 0.60238,-0.486812 0.72948,-0.40826 0.1271,0.07855 0.30963,-0.06186 0.40563,-0.312032 0.11525,-0.300332 -0.0302,-0.620625 -0.42805,-0.942812 -0.72234,-0.584914 -1.18572,-0.633777 -0.98226,-0.103578 0.23624,0.615631 -1.27032,1.667474 -3.21055,2.241522 -0.97632,0.288858 -3.14435,0.817058 -4.81784,1.173778 -6.37225,1.35831 -8.73125,1.46752 -8.73125,0.40421 0,-0.65639 -0.17397,-0.63164 -1.23179,0.1752 -1.00336,0.76529 -1.10972,1.25425 -0.38348,1.76293 0.38866,0.27222 1.17689,0.30615 3.50573,0.15087 1.65238,-0.11017 3.36152,-0.14269 3.79809,-0.0723 z m -1.26229,0.23412 c -0.0879,-0.0879 -0.31612,-0.0973 -0.50712,-0.0209 -0.21106,0.0845 -0.14837,0.14715 0.15986,0.15985 0.27891,0.0115 0.43518,-0.051 0.34726,-0.13897 z m -2.45214,-2.95442 c 0.0927,-0.54868 0.29299,-1.17375 0.44509,-1.389054 0.2329,-0.329682 0.25418,-0.321355 0.13481,0.05277 -0.078,0.244327 -0.2215,0.869404 -0.31899,1.389054 -0.16472,0.87806 -0.13065,0.94483 0.48213,0.94483 0.98711,0 9.37491,-1.82647 11.00928,-2.397313 2.8187,-0.984491 3.02885,-1.351372 2.25899,-3.943781 -0.56437,-1.900438 -2.61922,-3.990342 -4.4161,-4.491436 -2.21674,-0.61818 -4.66552,-0.0062 -7.01022,1.75188 -0.47567,0.356665 -0.78469,0.778181 -0.68672,0.936701 0.10178,0.164694 0.0564,0.212958 -0.10601,0.112614 -0.36992,-0.228623 -1.17843,0.579884 -0.9498,0.949804 0.10197,0.164996 0.0517,0.207566 -0.11986,0.101525 -0.36519,-0.225696 -1.46922,1.398142 -2.02497,2.978383 -0.22394,0.63676 -0.40716,1.79762 -0.40716,2.579683 0,1.39401 0.0151,1.42194 0.77049,1.42194 0.6849,0 0.78922,-0.11082 0.93904,-0.9976 z m -0.22785,-3.149436 c 0.16008,-0.120219 0.36634,-0.397174 0.45835,-0.615455 0.11755,-0.278858 0.14902,-0.246039 0.10582,0.110367 -0.0338,0.278982 -0.24007,0.555937 -0.45835,0.615455 -0.25527,0.0696 -0.29302,0.03022 -0.10582,-0.110367 z m 13.67146,-0.604103 c 0.0428,-0.568136 0.26282,-0.488055 0.35333,0.128598 0.0314,0.214069 -0.044,0.389217 -0.16761,0.389217 -0.1236,0 -0.20717,-0.233017 -0.18572,-0.517815 z m -11.18439,-0.904997 c 0,-0.05494 0.20836,-0.263301 0.46302,-0.463021 0.41964,-0.329107 0.429,-0.319749 0.0999,0.0999 -0.34564,0.440729 -0.56291,0.580887 -0.56291,0.363126 z m -0.66146,-0.958438 c 0.26339,-0.291042 0.53842,-0.529167 0.61118,-0.529167 0.0728,0 -0.0832,0.238125 -0.3466,0.529167 -0.26339,0.291041 -0.53842,0.529166 -0.61118,0.529166 -0.0728,0 0.0832,-0.238125 0.3466,-0.529166 z m 1.448,-0.353058 c 0.41292,-0.53636 2.49325,-2.028192 2.82828,-2.028192 0.1167,0 -0.26194,0.314609 -0.84142,0.699131 -0.57949,0.384522 -1.34766,0.950069 -1.70706,1.256771 -0.49824,0.42518 -0.5647,0.442351 -0.2798,0.07229 z m 3.44679,-2.289094 c 0.21828,-0.143089 0.68461,-0.261985 1.03629,-0.264213 0.84921,-0.0054 0.63397,0.145061 -0.50712,0.354448 -0.65152,0.119552 -0.80839,0.0928 -0.52917,-0.09024 z m 33.16361,5.154794 c 0.37026,-0.157079 0.46261,-0.42056 0.38385,-1.095159 -0.11621,-0.995491 -0.0197,-1.091086 0.45131,-0.446959 0.29749,0.406837 0.38623,0.396142 1.1346,-0.136743 1.99264,-1.418885 1.48027,-4.537107 -0.61464,-3.740624 -0.36645,0.139322 -0.76437,0.518524 -0.88428,0.842671 l -0.21802,0.589359 -0.34793,-0.650112 c -0.19136,-0.357562 -0.40247,-1.500004 -0.46914,-2.538761 l -0.1212,-1.888649 -1.88544,-0.56929 c -3.81442,-1.151731 -10.8171,-1.409892 -11.40371,-0.420409 -0.14922,0.251688 -0.9169,1.367 -1.70596,2.47847 -0.78907,1.111471 -1.89066,2.865369 -2.44798,3.897552 -0.95875,1.775647 -0.98833,1.89931 -0.54923,2.296688 0.76525,0.692541 1.85691,0.98599 3.66798,0.98599 1.48968,0 1.7958,-0.08697 2.32822,-0.661458 0.33716,-0.363802 0.77796,-0.66158 0.97955,-0.661727 0.20159,-1.48e-4 0.69843,-0.591198 1.10408,-1.313444 1.06018,-1.887626 1.32753,-1.937842 1.1115,-0.208771 -0.16837,1.347523 -0.14017,1.457912 0.40907,1.601541 0.4391,0.114826 0.55348,0.293539 0.44744,0.699061 -0.0784,0.299639 -0.12385,0.546591 -0.1011,0.548782 0.0228,0.0022 0.51763,0.182738 1.09971,0.401215 0.78637,0.29515 1.84025,0.371583 4.10104,0.297425 1.67349,-0.05489 3.26212,-0.192885 3.53028,-0.306648 z m 0.17389,-2.738098 c 0,-0.547941 1.26313,-2.031337 1.79503,-2.108051 0.47508,-0.06852 0.58622,0.04435 0.58622,0.595313 0,0.373923 -0.11906,0.67986 -0.26458,0.67986 -0.14552,0 -0.26459,-0.188515 -0.26459,-0.418923 0,-0.651462 -0.58642,-0.298182 -1.04284,0.628238 -0.39053,0.792689 -0.80924,1.115325 -0.80924,0.623563 z m -4.3357,-1.410458 c 0.0764,-0.12364 0.24977,-0.156301 0.38523,-0.07258 0.34618,0.213949 0.3072,0.297382 -0.13893,0.297382 -0.21188,0 -0.32272,-0.101161 -0.2463,-0.224802 z m -1.74972,-0.489057 c 0,-0.628607 0.70082,-0.984216 1.11783,-0.567208 0.20828,0.20828 0.19432,0.401976 -0.0502,0.69659 -0.47924,0.577456 -1.06764,0.506151 -1.06764,-0.129382 z m -7.56709,-0.09756 c -0.16729,-0.435945 0.29502,-1.217054 0.72032,-1.217054 0.38129,0 0.26284,0.968108 -0.16155,1.320319 -0.31904,0.264779 -0.42506,0.245187 -0.55877,-0.103265 z m -1.53111,-0.207134 c 0.0764,-0.12364 0.24977,-0.156301 0.38524,-0.07258 0.34617,0.213949 0.30719,0.297382 -0.13894,0.297382 -0.21188,0 -0.32271,-0.101161 -0.2463,-0.224802 z m 2.39507,-2.534781 c -0.37563,-0.375625 -0.56972,-0.394503 -1.28401,-0.124887 -1.10442,0.416869 -1.21734,0.246845 -0.38732,-0.583175 1.04196,-1.041959 2.55363,-0.794432 2.55363,0.418142 0,0.672449 -0.37616,0.796055 -0.8823,0.28992 z m 5.90938,0.271259 c 0,-0.365627 0.81883,-1.049686 1.62204,-1.355063 0.85386,-0.32464 1.81755,0.241108 1.81755,1.067027 0,0.447338 -0.1067,0.509624 -0.59531,0.347522 -0.79501,-0.26375 -1.81329,-0.270345 -2.38125,-0.01542 -0.26226,0.117712 -0.46303,0.09861 -0.46303,-0.04406 z m -3.50213,6.829166 c 0.25268,-0.134898 0.69755,-0.33444 0.98859,-0.443426 0.50685,-0.1898 0.50407,-0.202548 -0.0661,-0.302299 -0.50457,-0.08827 -0.59624,-0.27274 -0.60139,-1.21022 l -0.006,-1.106077 -0.57509,0.992187 c -0.32874,0.567162 -0.7795,0.992188 -1.05226,0.992188 -0.59283,0 -0.59608,0.119644 -0.0215,0.790726 0.5133,0.599499 0.68083,0.635536 1.33385,0.286921 z m -8.13953,-4.303217 c 0,-0.302208 -0.19503,-0.478597 -0.52917,-0.478597 -0.40466,0 -0.52917,0.176389 -0.52917,0.749653 0,0.412309 0.086,0.835682 0.19118,0.940828 0.25312,0.253118 0.86716,-0.605026 0.86716,-1.211884 z m 0.79375,-1.007763 c 0,-0.145521 -0.26789,-0.26276 -0.59531,-0.260532 -0.4814,0.0033 -0.51937,0.05313 -0.19844,0.260532 0.51296,0.331502 0.79375,0.331502 0.79375,0 z m -16.13959,-1.455209 c 0.82002,-0.315786 0.85031,-0.358508 0.26459,-0.373133 -0.9024,-0.02253 -1.85209,0.252455 -1.85209,0.536284 0,0.314138 0.47483,0.265339 1.5875,-0.163151 z m 33.66144,-3.022833 c -0.10016,-0.682426 -0.31279,-0.869289 -1.47724,-1.298186 -0.74813,-0.275557 -1.53883,-0.567515 -1.75711,-0.648796 -0.31632,-0.117788 -0.30347,-0.152023 0.0633,-0.168672 0.25311,-0.01149 1.06387,0.208493 1.8017,0.488848 1.50475,0.571759 1.49724,0.57813 1.62787,-1.380497 0.0778,-1.165709 0.0311,-1.280443 -0.57968,-1.426913 -0.97505,-0.233808 -3.02539,-1.30095 -3.42523,-1.782728 -0.19058,-0.229633 -0.50277,-0.417514 -0.69376,-0.417514 -0.19099,0 -0.68243,-0.129277 -1.09208,-0.287281 -0.40966,-0.158005 -1.48792,-0.298785 -2.39613,-0.312845 l -1.6513,-0.02556 -1.58279,1.96649 c -0.87053,1.08157 -1.58596,2.05176 -1.58984,2.155977 -0.004,0.104218 1.27286,0.227759 2.83721,0.274537 l 2.84427,0.08505 -3.06013,0.05619 -3.06014,0.05619 -0.55814,0.992187 -0.55813,0.992188 3.35368,-0.09397 c 3.80235,-0.106538 6.85547,0.269581 9.17453,1.130221 0.87312,0.324032 1.65694,0.556097 1.74182,0.5157 0.0849,-0.0404 0.10167,-0.432175 0.0373,-0.870621 z m 4.4999,-1.456818 c 1.48429,-0.32492 2.04105,-2.962038 0.90436,-4.283525 l -0.62181,-0.722893 0.62181,-0.916283 c 0.77501,-1.142041 0.79065,-2.143921 0.0482,-3.087778 -0.94609,-1.20276 -1.95978,-1.457868 -5.83405,-1.468204 -2.547,-0.0068 -3.69628,-0.113447 -4.17569,-0.387499 -0.3638,-0.207968 -0.49418,-0.382343 -0.28972,-0.387499 0.27947,-0.007 0.24679,-0.147442 -0.13167,-0.56563 -0.79573,-0.879277 -1.83132,-1.296297 -3.20349,-1.290019 -1.60462,0.0073 -3.15653,0.707633 -4.67979,2.111724 -2.39861,2.210966 -2.53182,4.576008 -0.31445,5.583096 1.41366,0.642056 2.23428,0.62643 2.9611,-0.05638 l 0.59379,-0.557836 -0.70903,-0.645854 -0.70903,-0.645855 1.11394,0.542233 c 0.61266,0.298227 1.60295,0.542231 2.20064,0.542231 0.99996,0 1.0734,-0.04752 0.92,-0.595312 l -0.16671,-0.595313 0.47961,0.564346 c 0.41409,0.487264 1.41992,1.155446 1.7393,1.155446 0.0571,0 0.0579,-0.386953 0.002,-0.859896 l -0.10205,-0.859896 0.51607,1.058334 c 0.85651,1.756483 3.25434,3.00982 5.79896,3.031095 0.76394,0.0064 1.38902,0.130676 1.38902,0.276196 0,0.145521 -0.46427,0.264584 -1.0317,0.264584 -1.03164,0 -1.03169,5.6e-5 -1.12596,1.185309 -0.0844,1.061238 -0.0249,1.212273 0.56867,1.442903 0.72541,0.281866 1.8339,0.470144 2.25044,0.382239 0.14552,-0.03071 0.58984,-0.127038 0.98738,-0.214061 z m -17.64792,-9.662282 c -0.17415,-0.281768 0.87644,-0.936612 1.11688,-0.69617 0.0846,0.08455 0.008,0.153728 -0.17056,0.153728 -0.17837,0 -0.25156,0.117699 -0.16265,0.261553 0.096,0.15536 -0.0227,0.190816 -0.29237,0.08733 -0.30804,-0.118204 -0.39251,-0.07469 -0.26271,0.135322 0.10522,0.170251 0.13178,0.309546 0.059,0.309546 -0.0728,0 -0.20218,-0.113088 -0.2876,-0.251308 z m -30.81207,20.986559 c -0.77159,-0.980918 -1.15136,-2.614576 -1.02237,-4.397877 0.19595,-2.708968 1.49181,-3.771339 5.03873,-4.130854 3.5049,-0.355256 4.24594,-1.014041 5.4792,-4.871054 0.17567,-0.5494 0.62101,-1.357348 0.98964,-1.79544 1.36807,-1.625863 2.84605,-1.900489 6.29565,-1.169806 1.01859,0.215754 2.16339,0.39228 2.544,0.39228 0.99449,0 2.08652,-0.94531 2.08532,-1.805141 -9.1e-4,-0.651538 -0.22697,-1.098138 -1.49696,-2.957359 -0.24851,-0.363802 0.0418,-0.164864 0.64505,0.442083 1.76617,1.776885 1.80884,3.412845 0.11482,4.402203 -0.84225,0.491899 -0.94115,0.493351 -3.40357,0.04998 -5.01966,-0.90381 -6.36361,-0.32897 -7.63781,3.266874 -1.26155,3.560144 -1.93657,4.113454 -5.51424,4.519977 -2.65751,0.301967 -3.69962,0.771348 -4.31069,1.941589 -0.6838,1.309533 -0.57631,3.853815 0.2318,5.486717 0.35979,0.727004 0.62148,1.321825 0.58154,1.321825 -0.04,0 -0.319,-0.313199 -0.62011,-0.695999 z m 0.7889,-0.927807 c -1.04849,-1.719794 -0.52891,-3.869529 1.21276,-5.017795 0.54944,-0.362235 1.19069,-0.489648 2.34387,-0.465714 l 1.5875,0.03295 -1.46175,0.188681 c -1.72008,0.222027 -2.40026,0.545209 -3.14794,1.495737 -0.67821,0.862204 -0.74558,2.875859 -0.12582,3.760688 0.23312,0.332831 0.3586,0.670408 0.27884,0.750169 -0.0798,0.07976 -0.38912,-0.255359 -0.68746,-0.744714 z m 11.68628,-8.090211 c 0.57106,-1.70316 1.26627,-2.598434 2.19969,-2.832708 0.35137,-0.08819 1.52012,0.130785 2.68689,0.503403 1.13576,0.362716 2.48501,0.661004 2.99834,0.662861 1.61916,0.0059 2.66062,-1.191641 1.79189,-2.060372 -0.24695,-0.246944 -0.2451,-0.3175 0.008,-0.3175 0.17919,0 0.38878,0.164111 0.46575,0.364691 0.24511,0.638755 2.11369,-0.03611 3.04878,-1.101117 0.76343,-0.869501 0.8104,-1.036578 0.66037,-2.348789 -0.0889,-0.776986 -0.23454,-2.052193 -0.32376,-2.833795 -0.0899,-0.787237 -0.0522,-1.489083 0.0844,-1.573526 0.13985,-0.08644 0.19719,0.184494 0.13242,0.625789 -0.0628,0.428022 0.096,1.554888 0.35297,2.504146 0.38674,1.428755 0.41383,1.904001 0.15731,2.76018 -0.36736,1.226147 -1.55709,2.310149 -2.78915,2.541285 -0.54068,0.101432 -1.10415,0.461556 -1.44632,0.924375 -0.86907,1.175481 -2.04234,1.265763 -4.83811,0.372291 -3.26893,-1.044684 -4.01212,-0.684356 -4.89451,2.373058 -0.12257,0.424672 -0.35463,0.815864 -0.51569,0.869316 -0.17601,0.05841 -0.0881,-0.513548 0.22041,-1.433588 z m 3.92098,0.865039 c -0.49307,-0.594107 -0.21786,-1.54327 0.57629,-1.987579 0.64028,-0.358219 0.7649,-0.358969 1.11715,-0.0067 0.35225,0.352247 0.30502,0.39624 -0.42335,0.394357 -1.05971,-0.0027 -1.59305,0.726441 -0.97986,1.339637 0.38972,0.389717 0.49431,0.390136 1.23915,0.005 0.44743,-0.231372 1.16832,-0.420678 1.60199,-0.420678 0.60341,0 0.81851,-0.139735 0.91637,-0.595312 0.11363,-0.52891 0.12306,-0.521929 0.0846,0.06258 -0.0352,0.534361 -0.21722,0.686628 -0.96938,0.810908 -0.50932,0.08416 -1.1861,0.294119 -1.50396,0.466583 -0.76768,0.416532 -1.27361,0.395568 -1.65895,-0.06874 z m -10.33084,-5.703104 c -0.29104,-0.291042 -0.52917,-0.713673 -0.52917,-0.939181 0,-0.414632 0.71954,-1.971236 0.9112,-1.971236 0.0571,0 0.32195,-0.07885 0.58852,-0.175222 0.32755,-0.118423 0.24343,0.05399 -0.25951,0.531882 -0.57267,0.544155 -0.7251,0.904636 -0.66145,1.564284 0.0759,0.786801 0.15844,0.857181 1.00518,0.857181 0.74174,0 0.9897,-0.140255 1.26558,-0.715859 0.1887,-0.393723 0.69632,-0.967377 1.12804,-1.274788 0.93583,-0.666371 1.00559,-1.245007 0.18963,-1.572983 l -0.59531,-0.239286 0.586,-0.01677 c 0.32807,-0.0094 0.71087,0.216541 0.86968,0.513283 0.24134,0.45095 0.12427,0.686301 -0.78444,1.577023 -0.58746,0.575833 -1.06812,1.162242 -1.06812,1.303131 0,0.476784 -0.82795,1.08771 -1.4741,1.08771 -0.35341,0 -0.88069,-0.238125 -1.17173,-0.529167 z m 8.79247,-3.849818 c -0.60852,-0.426224 -0.80641,-1.177265 -0.31019,-1.177265 0.15411,0 0.19839,0.132374 0.0984,0.294164 -0.19188,0.310461 0.31971,0.753276 0.87817,0.760117 0.18191,0.0022 0.33073,-0.257886 0.33073,-0.578031 0,-0.459983 0.0681,-0.513956 0.32479,-0.257301 0.23342,0.233427 0.24671,0.448544 0.0472,0.764773 -0.39336,0.623607 -0.69439,0.66616 -1.36914,0.193543 z"
           style="fill:#666666;stroke-width:0.26458335"
           sodipodi:nodetypes="ccccccccccccccccccccccsccsccccssccccccccscscccccccccsccccccscsccscsccsccsccsccsscccccscccsccsccsccccsccscccccccccsscccccccccccccccccccccccsccccccccscccccccccccscscccscssccccccccsccccccscsccsccsccccscscccccccccccccccccccscccccccccccccccccccscccscscccccsccsccccccssssscccccsccscccccccccccccscccssccccscscccscccsscssccccccccccssscccccssccccccccccccccccsscccsccscsssscccsccccccccccsccsscsccccscccccccsscccccccccsccccsccscccccssscccccsccsccsccscscsccscccccscccccccccccccccscsccccccccccscssscsccscccccscsssccssccsssscsccsccsccccscccssscsscssccscccscccccscccccscccccsccccccccccccccccsccccscccsccccssccsccccscccsccccsccsscccssssccsccccccsccccccccccsccccccccscsccccccccccscccccccsscccsccsccccsscccsccsccc" />
        <path
           inkscape:connector-curvature="0"
           id="path840-1"
           d="m 303.89716,100.95003 c -0.32603,0.39754 -0.29556,0.42493 0.29834,0.2682 0.3638,-0.096 1.13771,-0.17801 1.71979,-0.18223 0.7816,-0.006 0.95456,-0.0747 0.66146,-0.26414 -0.64903,-0.41943 -2.27831,-0.3111 -2.67959,0.17817 z"
           style="fill:#666666;stroke-width:0.26458338"
           sodipodi:nodetypes="ccccc" />
      </g>
    </g>
  </g>
</svg>
